simulation
nRows=31
nColumns=15
endheader
time  TH_x TH_y TH_z SC_y  SC_z  SC_x  AC_y  AC_z  AC_x  GH_y  GH_z  GH_yy  EL_x  PS_y
0.000000  0.000000  0.000000  0.000000  -30.813392  -0.339563  3.112513  53.564726  3.436467  -8.036030  42.446688  -0.496460  -14.445645  22.668474  122.008067
0.000299  0.000000  0.000000  0.000000  -19.841569  14.582153  38.236801  40.724682  -7.678044  -25.835698  42.703240  4.595871  -12.225513  21.111527  116.939766
0.000599  0.000000  0.000000  0.000000  -19.841569  14.582153  23.236801  41.269962  2.194517  -14.515556  42.703240  4.595871  -12.225513  21.111527  116.939766
0.000898  0.000000  0.000000  0.000000  -19.841569  14.582153  26.570134  41.317822  -0.005572  -17.020308  42.703240  4.595871  -12.225513  21.111527  116.939766
0.001197  0.000000  0.000000  0.000000  -19.841569  14.582153  29.903468  41.269475  -2.205651  -19.525078  42.703240  4.595871  -12.225513  21.111527  116.939766
0.001497  0.000000  0.000000  0.000000  -19.841569  14.582153  33.236801  41.124657  -4.401506  -22.037262  42.703240  4.595871  -12.225513  21.111527  116.939766
0.001796  0.000000  0.000000  0.000000  -19.841569  14.582153  36.570134  40.882580  -6.588885  -24.564285  42.703240  4.595871  -12.225513  21.111527  116.939766
0.002095  0.000000  0.000000  0.000000  -19.841569  14.582153  39.903468  40.541938  -8.763449  -27.113632  42.703240  4.595871  -12.225513  21.111527  116.939766
0.002394  0.000000  0.000000  0.000000  -19.841569  14.582153  43.236801  40.100909  -10.920735  -29.692869  42.703240  4.595871  -12.225513  21.111527  116.939766
0.002694  0.000000  0.000000  0.000000  -19.841569  14.582153  46.570134  39.557179  -13.056111  -32.309667  42.703240  4.595871  -12.225513  21.111527  116.939766
0.002993  0.000000  0.000000  0.000000  -19.841569  14.582153  49.903468  38.907952  -15.164734  -34.971809  42.703240  4.595871  -12.225513  21.111527  116.939766
0.003292  0.000000  0.000000  0.000000  -19.841569  14.582153  53.236801  38.149988  -17.241505  -37.687188  42.703240  4.595871  -12.225513  21.111527  116.939766
0.003592  0.000000  0.000000  0.000000  -34.571696  7.807784  -1.938751  52.394653  9.869325  5.805911  47.590365  -6.627498  -5.775347  24.647115  125.085973
0.003891  0.000000  0.000000  0.000000  -34.571696  7.807784  -16.938751  49.726066  21.565942  15.583549  47.590365  -6.627498  -5.775347  24.647115  125.085973
0.004190  0.000000  0.000000  0.000000  -34.571696  7.807784  -13.605418  50.516316  19.007576  13.305160  47.590365  -6.627498  -5.775347  24.647115  125.085973
0.004490  0.000000  0.000000  0.000000  -34.571696  7.807784  -10.272085  51.188709  16.422163  11.096187  47.590365  -6.627498  -5.775347  24.647115  125.085973
0.004789  0.000000  0.000000  0.000000  -34.571696  7.807784  -6.938751  51.749847  13.814266  8.945474  47.590365  -6.627498  -5.775347  24.647115  125.085973
0.005088  0.000000  0.000000  0.000000  -34.571696  7.807784  -3.605418  52.205211  11.188067  6.842556  47.590365  -6.627498  -5.775347  24.647115  125.085973
0.005388  0.000000  0.000000  0.000000  -34.571696  7.807784  -0.272085  52.559233  8.547442  4.777546  47.590365  -6.627498  -5.775347  24.647115  125.085973
0.005687  0.000000  0.000000  0.000000  -34.571696  7.807784  3.061249  52.815339  5.896031  2.741020  47.590365  -6.627498  -5.775347  24.647115  125.085973
0.005986  0.000000  0.000000  0.000000  -34.571696  7.807784  6.394582  52.975999  3.237294  0.723902  47.590365  -6.627498  -5.775347  24.647115  125.085973
0.006286  0.000000  0.000000  0.000000  -34.571696  7.807784  9.727915  53.042759  0.574575  -1.282642  47.590365  -6.627498  -5.775347  24.647115  125.085973
0.006585  0.000000  0.000000  0.000000  -34.571696  7.807784  13.061249  53.016259  -2.088848  -3.287316  47.590365  -6.627498  -5.775347  24.647115  125.085973
0.006884  0.000000  0.000000  0.000000  -30.783502  -0.604767  3.834120  53.331334  3.084498  -8.653027  42.586180  -0.871155  -14.280658  22.707249  122.028099
0.007183  0.000000  0.000000  0.000000  -17.352347  3.357361  18.538564  59.118805  5.319105  -7.180962  54.986937  0.311288  -18.023402  21.586382  117.347260
0.007483  0.000000  0.000000  0.000000  -17.352347  3.357361  3.538564  57.475383  18.102293  0.852937  54.986937  0.311288  -18.023402  21.586382  117.347260
0.007782  0.000000  0.000000  0.000000  -17.352347  3.357361  6.871897  58.009045  15.283185  -1.004252  54.986937  0.311288  -18.023402  21.586382  117.347260
0.008081  0.000000  0.000000  0.000000  -17.352347  3.357361  10.205230  58.442448  12.449179  -2.812005  54.986937  0.311288  -18.023402  21.586382  117.347260
0.008381  0.000000  0.000000  0.000000  -17.352347  3.357361  13.538564  58.780839  9.603426  -4.580599  54.986937  0.311288  -18.023402  21.586382  117.347260
0.008680  0.000000  0.000000  0.000000  -17.352347  3.357361  16.871897  59.028257  6.748845  -6.319650  54.986937  0.311288  -18.023402  21.586382  117.347260
0.008979  0.000000  0.000000  0.000000  -17.352347  3.357361  20.205230  59.187622  3.888176  -8.038279  54.986937  0.311288  -18.023402  21.586382  117.347260
